<svg xmlns="http://www.w3.org/2000/svg" width="117" height="117" fill="none" viewBox="0 0 117 117"><g clip-path="url(#clip0_21_222)"><path fill="#fff" d="M60.398 65.806C65.1392 65.806 68.9827 61.9719 68.9827 57.2423C68.9827 52.5128 65.1392 48.6787 60.398 48.6787C55.6568 48.6787 51.8133 52.5128 51.8133 57.2423C51.8133 61.9719 55.6568 65.806 60.398 65.806Z"/><path fill="#fff" fill-rule="evenodd" d="M116.157 62.0285C116.312 59.81 114.49 58.0048 112.261 58.0048H88.179C85.9495 58.0048 84.1742 59.8182 83.8294 62.0154C83.285 65.4838 82.0383 68.816 80.1554 71.8039C77.5215 77.2649 71.1071 85.5842 61.7825 90.0328C59.1126 91.1575 56.3816 92.387 53.7203 93.5852C45.573 97.2538 38.077 100.629 34.974 99.7984C37.6348 99.3476 45.0346 89.7925 48.5288 84.6243C48.9701 83.9715 49.5153 83.3184 50.1405 82.6714C45.5014 81.1724 41.3692 78.3982 38.2262 74.6561C34.7993 70.576 32.7144 65.5427 32.2545 60.2399C31.7946 54.9371 32.9816 49.6215 35.655 45.015C38.3281 40.4084 42.3578 36.734 47.1965 34.4911C50.8089 32.8165 54.7418 32.0003 58.689 32.082C60.9179 32.128 63.0188 30.7022 63.4095 28.5124L67.6273 4.86137C68.0176 2.67172 66.5551 0.566136 64.3382 0.329426C53.8609 -0.78932 43.2476 0.951248 33.6458 5.40207C22.8208 10.42 13.8061 18.6398 7.82594 28.9452C1.84578 39.2505 -0.810094 51.1422 0.218966 63.0053C1.24803 74.8684 5.91217 86.1281 13.578 95.2555C21.2439 104.383 31.54 110.936 43.0683 114.024C54.5966 117.113 66.7982 116.587 78.0167 112.519C89.2351 108.45 98.9269 101.037 105.775 91.2837C111.85 82.6334 115.426 72.5147 116.157 62.0285Z" clip-rule="evenodd"/><path fill="#fff" fill-rule="evenodd" d="M75.8341 11.0926C75.6846 11.3422 75.6058 11.6275 75.6058 11.9182V25.2398C75.6058 26.1314 76.3304 26.8543 77.2245 26.8543H89.3548C90.2465 26.8543 90.9697 27.5755 90.9697 28.4651V45.8967C90.9697 48.1207 92.777 49.9236 95.0065 49.9236H112.235C114.464 49.9236 116.272 48.1207 116.272 45.8967V4.02772C116.272 1.8037 114.464 0.000764398 112.235 0.000764398H96.2253H84.3293C83.7608 0.000764398 83.2342 0.298987 82.9426 0.785941L75.8341 11.0926Z" clip-rule="evenodd"/></g><defs><clipPath id="clip0_21_222"><rect width="116.271" height="116.271" fill="#fff"/></clipPath></defs></svg>